<?xml version="1.0" standalone="no"?>
<!DOCTYPE svg PUBLIC "-//W3C//DTD SVG 20010904//EN"
 "http://www.w3.org/TR/2001/REC-SVG-20010904/DTD/svg10.dtd">
<svg version="1.0" xmlns="http://www.w3.org/2000/svg"
 width="640.000000pt" height="640.000000pt" viewBox="0 0 640.000000 640.000000"
 preserveAspectRatio="xMidYMid meet">
<metadata>
Created by potrace 1.14, written by Peter Selinger 2001-2017
</metadata>
<g transform="translate(0.000000,640.000000) scale(0.100000,-0.100000)"
fill="#000000" stroke="none">
<path d="M3018 6365 c-1 -2 -40 -6 -84 -9 -327 -26 -673 -115 -984 -253 -111
-49 -386 -196 -400 -213 -3 -3 -29 -21 -58 -38 -30 -18 -59 -37 -65 -43 -7 -5
-43 -32 -82 -60 -38 -29 -71 -56 -73 -60 -2 -5 -8 -9 -12 -9 -5 0 -22 -12 -38
-27 -16 -16 -51 -47 -78 -70 -113 -95 -355 -352 -388 -411 -5 -10 -14 -22 -20
-28 -6 -6 -20 -23 -31 -38 -11 -16 -35 -48 -52 -71 -18 -24 -33 -48 -33 -54 0
-5 -4 -11 -8 -13 -16 -6 -179 -287 -173 -297 2 -2 -1 -7 -6 -10 -22 -15 -140
-295 -191 -451 -38 -119 -72 -244 -74 -276 -1 -13 -5 -24 -8 -24 -3 0 -6 -8
-6 -17 -1 -10 -4 -34 -8 -53 -23 -116 -28 -153 -41 -295 -8 -92 -9 -98 -19
-114 -5 -8 -5 -12 0 -9 5 4 9 -86 8 -215 0 -122 2 -226 5 -232 3 -5 6 -23 7
-40 2 -54 15 -149 21 -159 4 -5 0 -6 -8 -1 -11 7 -12 6 -2 -6 7 -8 14 -34 15
-57 2 -23 6 -42 9 -42 4 0 6 -18 5 -39 0 -22 2 -37 5 -35 6 3 18 -53 20 -91 0
-5 5 -16 11 -22 6 -7 8 -13 4 -13 -3 0 1 -16 9 -36 14 -34 25 -82 28 -126 1
-9 3 -15 6 -12 5 5 61 -149 63 -173 1 -7 5 -13 10 -13 4 0 8 -9 8 -20 0 -11 9
-35 19 -54 11 -19 17 -37 14 -40 -4 -3 -1 -6 4 -6 6 0 10 -11 9 -25 -2 -13 0
-22 4 -20 4 2 36 -53 70 -123 35 -70 66 -129 69 -132 10 -8 42 -64 48 -82 3
-10 10 -18 15 -18 6 0 5 -7 -2 -15 -11 -13 -10 -14 5 -8 15 5 17 3 12 -11 -4
-10 -3 -15 3 -11 5 3 15 -5 22 -19 6 -14 14 -26 17 -26 4 0 7 -9 8 -20 1 -13
-2 -18 -9 -14 -7 4 -8 2 -4 -5 6 -9 11 -9 22 0 11 9 14 7 14 -10 0 -12 5 -19
10 -16 6 3 10 1 10 -5 0 -11 10 -24 41 -58 8 -9 31 -38 49 -65 18 -26 38 -47
44 -47 7 0 7 -3 1 -8 -5 -4 -11 -13 -13 -21 -3 -12 0 -12 12 -2 13 11 17 10
22 -3 3 -9 11 -13 18 -9 6 3 8 3 4 -2 -4 -4 8 -25 28 -47 20 -23 32 -44 27
-51 -4 -7 2 -5 12 3 11 9 16 10 11 2 -4 -6 -2 -12 4 -12 6 0 9 -10 6 -23 -3
-17 1 -23 16 -23 18 0 18 1 2 13 -10 7 -14 13 -10 13 4 0 40 -34 81 -76 52
-54 72 -81 70 -96 -3 -16 -2 -18 10 -8 16 13 39 4 29 -11 -3 -5 -2 -8 3 -7 13
4 63 -33 57 -43 -3 -5 2 -6 11 -3 11 5 14 2 8 -12 -4 -12 -3 -15 5 -10 7 4 12
2 12 -4 0 -6 4 -9 9 -5 5 3 17 -5 25 -17 9 -12 16 -19 16 -14 0 5 8 -1 19 -12
10 -12 21 -19 25 -15 3 3 6 1 6 -5 0 -6 9 -14 20 -17 11 -4 18 -10 15 -15 -3
-4 4 -10 15 -13 14 -4 18 -10 14 -22 -9 -21 15 -38 33 -23 16 13 46 -8 36 -25
-3 -5 -1 -7 5 -4 16 11 42 -3 42 -22 0 -14 2 -14 10 -1 5 8 10 11 10 5 0 -5
27 -26 60 -44 33 -19 60 -38 60 -43 0 -4 7 -4 17 -1 11 4 14 3 9 -5 -6 -11 5
-17 27 -13 4 0 7 -4 7 -9 0 -6 8 -10 19 -10 27 0 44 -23 28 -40 -6 -8 -2 -6
10 3 12 11 24 14 27 9 3 -6 3 -12 -1 -15 -5 -2 -2 -2 5 0 8 2 19 0 25 -4 7 -4
14 -8 17 -8 3 -1 21 -9 40 -20 19 -10 40 -20 46 -21 5 -1 30 -11 54 -23 24
-11 51 -21 59 -22 12 0 11 -3 -4 -10 -17 -8 -16 -9 7 -6 19 3 28 0 28 -10 0
-7 6 -16 14 -19 8 -3 12 -13 9 -22 -4 -15 -3 -15 6 -2 8 11 7 18 -4 26 -26 19
-16 25 15 9 17 -9 30 -13 30 -11 0 3 17 -2 37 -11 21 -8 40 -14 43 -13 2 1 7
-7 11 -17 4 -10 8 -13 8 -6 1 6 7 10 14 9 27 -6 73 -18 87 -23 17 -7 26 -10
55 -17 70 -18 80 -23 77 -42 -3 -18 -3 -18 11 0 14 18 18 19 58 6 24 -7 51
-13 60 -11 9 1 22 -5 29 -14 7 -8 18 -15 24 -15 6 0 4 5 -4 10 -11 8 -8 10 15
7 17 -2 30 -9 30 -15 0 -12 10 -17 23 -9 4 2 1 2 -6 0 -7 -1 -10 2 -7 8 4 5
14 8 23 5 10 -3 40 -8 67 -11 28 -3 66 -8 85 -11 19 -3 51 -5 71 -5 28 1 39
-5 48 -22 11 -21 11 -21 6 -1 -5 20 -2 22 31 18 20 -2 38 -5 41 -7 2 -3 20 -1
39 3 27 6 34 5 34 -7 0 -8 -5 -11 -12 -7 -7 5 -8 3 -3 -6 6 -10 10 -10 19 2 8
11 27 15 66 13 30 0 63 2 72 7 9 4 18 4 20 -2 2 -5 18 -6 41 -1 30 7 37 6 37
-6 0 -12 2 -12 16 1 9 9 34 16 57 17 53 1 103 6 147 13 20 3 41 0 49 -7 12 -9
13 -9 7 1 -4 6 -4 12 1 13 4 0 19 2 33 5 19 3 21 2 10 -6 -11 -7 -11 -10 -2
-10 7 0 15 6 18 13 7 20 111 29 106 8 -1 -7 2 -10 8 -6 6 3 8 10 5 15 -7 12 8
20 42 22 15 1 34 6 41 11 6 5 12 7 12 3 0 -3 11 -1 25 4 20 8 27 5 40 -13 8
-12 15 -17 15 -11 0 5 -5 15 -11 21 -7 7 -6 12 6 17 9 3 14 2 11 -2 -2 -4 5
-8 17 -9 12 0 16 1 10 4 -21 8 -15 20 10 18 12 -1 24 1 27 5 10 16 75 15 65 0
-3 -5 -1 -10 4 -10 14 0 14 13 0 27 -7 7 -3 12 15 15 26 5 36 -6 14 -15 -7 -3
-3 -4 8 -4 13 1 20 6 17 13 -6 17 29 34 58 28 20 -5 21 -4 9 6 -12 10 -11 11
8 7 12 -3 22 -2 22 2 0 4 19 15 43 24 23 10 55 24 70 32 16 8 35 15 43 15 8 0
14 4 14 10 0 5 7 7 15 4 8 -4 12 -11 8 -17 -3 -6 -1 -7 6 -3 6 4 9 11 6 16 -3
5 4 11 15 15 11 3 20 11 20 16 0 5 6 9 14 9 7 0 55 23 105 50 50 28 96 48 101
45 6 -4 9 -2 8 3 -2 6 13 21 33 35 32 22 37 23 47 8 10 -13 11 -13 6 -1 -5 17
49 63 73 63 7 0 13 3 13 7 0 13 79 62 89 55 7 -3 8 0 5 9 -8 21 25 34 37 15 8
-12 10 -12 8 1 -3 30 1 40 16 40 9 0 18 7 21 15 4 8 10 13 14 10 4 -3 10 2 14
10 3 8 10 15 17 15 6 0 8 -7 5 -16 -3 -9 -2 -12 4 -9 6 4 9 12 8 18 -1 7 12
27 29 46 29 31 32 32 42 15 11 -18 12 -17 6 2 -6 23 20 58 36 49 5 -4 9 1 9 9
0 9 7 16 16 16 8 0 13 4 9 9 -7 12 29 33 39 23 4 -3 4 2 0 12 -5 13 -4 17 3
13 6 -4 14 0 17 9 3 9 13 14 21 10 8 -3 17 0 21 6 4 6 3 8 -4 4 -6 -3 -13 -2
-16 3 -4 5 3 12 14 16 11 4 17 11 14 17 -5 7 -1 9 9 5 9 -3 16 -3 15 1 -3 14
14 42 23 36 5 -3 9 2 9 10 0 15 12 21 33 17 5 -1 6 3 3 8 -8 12 3 41 15 41 4
0 6 -8 2 -17 -3 -10 -2 -15 2 -10 5 4 9 17 10 29 1 12 7 24 15 26 7 3 10 0 7
-5 -3 -5 0 -10 8 -10 11 0 12 4 4 13 -8 10 -5 21 13 43 12 17 28 28 35 26 7
-2 15 1 19 7 4 6 3 8 -4 4 -6 -3 -13 -2 -16 3 -9 14 31 20 45 7 10 -8 10 -7 0
6 -7 10 -18 15 -25 12 -6 -3 -1 3 12 12 12 9 22 23 22 30 0 8 5 14 10 14 6 0
10 6 10 13 0 7 13 27 29 44 16 18 26 34 23 37 -11 12 15 5 28 -6 12 -11 12
-10 0 5 -8 11 -10 21 -4 25 5 4 16 21 24 37 8 17 20 35 25 42 23 28 30 39 33
52 1 7 9 20 17 28 8 8 15 21 15 29 0 8 3 14 8 14 4 0 13 15 21 32 8 18 24 47
35 63 12 17 21 32 21 35 0 3 4 4 8 2 5 -1 6 2 3 7 -9 14 12 63 24 56 6 -4 7 1
3 11 -3 10 -2 15 3 12 5 -4 10 4 11 15 0 12 13 48 27 80 14 31 25 58 24 60 -1
1 5 13 12 27 8 14 15 32 16 40 2 8 7 16 13 18 5 2 7 11 4 19 -5 13 -2 15 12
10 15 -7 16 -5 5 9 -8 9 -10 18 -4 22 5 4 9 12 9 17 0 19 29 105 36 105 3 0 5
11 3 25 -1 14 3 31 9 38 7 6 13 21 14 32 0 11 4 31 8 45 4 14 10 43 14 65 5
26 12 39 21 37 10 -2 11 0 2 10 -10 13 -8 40 5 78 6 15 7 21 18 105 4 28 8 61
10 75 5 38 16 150 19 190 1 20 6 41 10 48 4 7 2 12 -4 12 -6 0 -8 5 -4 11 12
20 1 435 -11 448 -3 2 1 11 8 19 9 13 9 14 0 8 -9 -5 -13 1 -14 21 0 15 -2 37
-4 48 -2 11 -7 47 -10 80 -4 33 -9 63 -11 67 -3 4 -7 20 -9 35 -2 16 -11 60
-19 98 -21 88 -20 88 -41 160 -10 33 -17 60 -16 60 6 0 -73 218 -110 302 -11
24 -19 45 -19 48 0 11 -117 241 -160 315 -54 94 -141 224 -152 228 -4 2 -8 8
-8 14 0 9 -45 74 -64 93 -6 6 -29 35 -52 65 -81 109 -226 257 -409 420 -65 58
-201 160 -213 160 -5 0 -12 4 -14 9 -8 23 -289 192 -438 263 -126 60 -377 159
-440 173 -8 2 -27 8 -42 14 -16 6 -28 8 -28 6 0 -2 -11 0 -25 5 -14 5 -36 12
-48 14 -12 3 -49 12 -82 20 -62 15 -217 41 -295 51 -25 3 -67 8 -95 11 -55 7
-481 15 -487 9z m-1597 -5688 c-1 -12 -15 -9 -19 4 -3 6 1 10 8 8 6 -3 11 -8
11 -12z"/>
<path d="M5980 1760 c-9 -6 -10 -10 -3 -10 6 0 15 5 18 10 8 12 4 12 -15 0z"/>
<path d="M435 1729 c-4 -6 -5 -12 -2 -15 2 -3 7 2 10 11 7 17 1 20 -8 4z"/>
<path d="M5946 1702 c-3 -5 1 -9 9 -9 8 0 12 4 9 9 -3 4 -7 8 -9 8 -2 0 -6 -4
-9 -8z"/>
<path d="M5890 1619 c0 -5 5 -7 10 -4 6 3 10 8 10 11 0 2 -4 4 -10 4 -5 0 -10
-5 -10 -11z"/>
<path d="M5766 1422 c-3 -5 1 -9 9 -9 8 0 12 4 9 9 -3 4 -7 8 -9 8 -2 0 -6 -4
-9 -8z"/>
<path d="M5749 1397 c6 -8 7 -18 3 -22 -4 -5 -1 -5 6 -1 10 6 10 11 1 22 -6 8
-14 14 -16 14 -3 0 0 -6 6 -13z"/>
<path d="M673 1365 c0 -8 4 -12 9 -9 5 3 6 10 3 15 -9 13 -12 11 -12 -6z"/>
<path d="M5719 1353 c-13 -16 -12 -17 4 -4 9 7 17 15 17 17 0 8 -8 3 -21 -13z"/>
<path d="M5633 1235 c0 -8 4 -12 9 -9 5 3 6 10 3 15 -9 13 -12 11 -12 -6z"/>
<path d="M813 1191 c0 -11 5 -18 9 -15 4 3 5 11 1 19 -7 21 -12 19 -10 -4z"/>
<path d="M847 1167 c-3 -8 1 -14 8 -14 7 0 11 6 8 14 -3 7 -6 13 -8 13 -2 0
-5 -6 -8 -13z"/>
<path d="M873 1125 c0 -8 4 -15 9 -15 4 0 8 4 8 9 0 6 -4 12 -8 15 -5 3 -9 -1
-9 -9z"/>
<path d="M946 1038 c3 -5 9 -7 12 -4 3 3 12 0 21 -6 13 -10 14 -10 4 2 -15 16
-46 23 -37 8z"/>
<path d="M5457 1035 c-4 -8 -3 -16 1 -19 4 -3 9 4 9 15 2 23 -3 25 -10 4z"/>
<path d="M995 1011 c-3 -5 -2 -12 3 -15 5 -3 9 1 9 9 0 17 -3 19 -12 6z"/>
<path d="M1026 983 c-6 -14 -5 -15 5 -6 7 7 10 15 7 18 -3 3 -9 -2 -12 -12z"/>
<path d="M5410 979 c0 -5 5 -7 10 -4 6 3 10 8 10 11 0 2 -4 4 -10 4 -5 0 -10
-5 -10 -11z"/>
<path d="M1046 962 c-3 -5 1 -9 9 -9 8 0 12 4 9 9 -3 4 -7 8 -9 8 -2 0 -6 -4
-9 -8z"/>
<path d="M5337 915 c-4 -8 -3 -16 1 -19 4 -3 9 4 9 15 2 23 -3 25 -10 4z"/>
<path d="M5285 890 c-16 -7 -17 -9 -3 -9 9 -1 20 4 23 9 7 11 7 11 -20 0z"/>
<path d="M1155 860 c-3 -5 -1 -10 4 -10 6 0 11 5 11 10 0 6 -2 10 -4 10 -3 0
-8 -4 -11 -10z"/>
<path d="M5250 820 c0 -5 5 -10 11 -10 5 0 7 5 4 10 -3 6 -8 10 -11 10 -2 0
-4 -4 -4 -10z"/>
<path d="M1194 802 c4 -3 14 -7 22 -8 9 -1 13 0 10 4 -4 3 -14 7 -22 8 -9 1
-13 0 -10 -4z"/>
<path d="M1255 770 c3 -4 14 -10 25 -13 11 -3 18 -2 15 3 -3 4 -14 10 -25 13
-11 3 -18 2 -15 -3z"/>
<path d="M5135 759 c-3 -4 2 -6 10 -5 21 3 28 13 10 13 -9 0 -18 -4 -20 -8z"/>
<path d="M5073 685 c0 -8 4 -12 9 -9 5 3 6 10 3 15 -9 13 -12 11 -12 -6z"/>
<path d="M1430 640 c0 -5 5 -10 10 -10 6 0 10 5 10 10 0 6 -4 10 -10 10 -5 0
-10 -4 -10 -10z"/>
<path d="M4960 628 c-10 -21 -10 -21 3 -6 8 10 18 14 22 10 5 -4 5 -1 1 6 -10
17 -14 15 -26 -10z"/>
<path d="M1474 605 c3 -23 12 -26 13 -5 1 11 -2 20 -7 20 -4 0 -7 -7 -6 -15z"/>
<path d="M4910 596 c0 -8 4 -17 9 -20 5 -4 7 3 4 14 -6 23 -13 26 -13 6z"/>
<path d="M4870 586 c0 -2 7 -7 16 -10 8 -3 12 -2 9 4 -6 10 -25 14 -25 6z"/>
<path d="M4826 561 c-3 -5 1 -11 9 -14 9 -4 12 -1 8 9 -6 16 -10 17 -17 5z"/>
<path d="M1587 546 c-4 -10 -1 -13 8 -9 8 3 12 9 9 14 -7 12 -11 11 -17 -5z"/>
<path d="M4795 540 c-3 -5 -1 -10 4 -10 6 0 11 5 11 10 0 6 -2 10 -4 10 -3 0
-8 -4 -11 -10z"/>
<path d="M1630 521 c0 -6 4 -13 10 -16 6 -3 7 1 4 9 -7 18 -14 21 -14 7z"/>
<path d="M4756 507 c3 -10 9 -15 12 -12 3 3 0 11 -7 18 -10 9 -11 8 -5 -6z"/>
<path d="M4730 500 c0 -5 5 -10 11 -10 5 0 7 5 4 10 -3 6 -8 10 -11 10 -2 0
-4 -4 -4 -10z"/>
<path d="M1657 487 c-3 -8 1 -14 8 -14 7 0 11 6 8 14 -3 7 -6 13 -8 13 -2 0
-5 -6 -8 -13z"/>
<path d="M4697 476 c-4 -10 -1 -13 9 -9 15 6 19 23 5 23 -5 0 -11 -7 -14 -14z"/>
<path d="M4673 435 c0 -8 4 -12 9 -9 4 3 8 9 8 15 0 5 -4 9 -8 9 -5 0 -9 -7
-9 -15z"/>
<path d="M1800 426 c0 -2 7 -7 16 -10 8 -3 12 -2 9 4 -6 10 -25 14 -25 6z"/>
<path d="M4580 409 c0 -5 -4 -8 -9 -4 -5 3 -12 2 -15 -3 -2 -4 6 -8 19 -8 15
0 21 5 18 13 -6 16 -13 17 -13 2z"/>
<path d="M4635 400 c3 -5 8 -10 11 -10 2 0 4 5 4 10 0 6 -5 10 -11 10 -5 0 -7
-4 -4 -10z"/>
<path d="M1860 384 c0 -1 8 -8 17 -15 14 -12 16 -12 8 0 -6 11 -4 13 9 8 9 -4
15 -3 11 2 -4 8 -45 12 -45 5z"/>
<path d="M1946 362 c-2 -4 4 -8 14 -8 10 0 16 4 14 8 -3 4 -9 8 -14 8 -5 0
-11 -4 -14 -8z"/>
<path d="M4440 355 c-7 -8 -17 -12 -23 -8 -6 4 -7 1 -3 -6 6 -9 13 -8 29 6 12
10 24 19 26 20 2 2 0 3 -6 3 -6 0 -16 -7 -23 -15z"/>
<path d="M1915 349 c-4 -6 -5 -12 -2 -15 2 -3 7 2 10 11 7 17 1 20 -8 4z"/>
<path d="M4470 336 c7 -7 13 -7 20 0 6 6 3 10 -10 10 -13 0 -16 -4 -10 -10z"/>
<path d="M1953 325 c0 -8 4 -15 9 -15 4 0 8 4 8 9 0 6 -4 12 -8 15 -5 3 -9 -1
-9 -9z"/>
<path d="M4363 327 l-23 -12 23 -14 c16 -10 19 -10 10 -1 -10 11 -9 16 5 26
22 17 14 17 -15 1z"/>
<path d="M1986 318 c3 -4 9 -8 15 -8 5 0 9 4 9 8 0 5 -7 9 -15 9 -8 0 -12 -4
-9 -9z"/>
<path d="M4396 313 c-6 -14 -5 -15 5 -6 7 7 10 15 7 18 -3 3 -9 -2 -12 -12z"/>
<path d="M2126 277 c3 -10 9 -15 12 -12 3 3 0 11 -7 18 -10 9 -11 8 -5 -6z"/>
<path d="M2158 273 c7 -3 16 -2 19 1 4 3 -2 6 -13 5 -11 0 -14 -3 -6 -6z"/>
<path d="M4237 252 c-15 -16 -15 -19 -2 -19 8 0 13 3 10 5 -3 3 0 11 6 19 17
20 5 16 -14 -5z"/>
<path d="M2295 230 c-3 -6 1 -7 9 -4 18 7 21 14 7 14 -6 0 -13 -4 -16 -10z"/>
<path d="M2320 220 c-8 -5 -10 -10 -5 -10 6 0 17 5 25 10 8 5 11 10 5 10 -5 0
-17 -5 -25 -10z"/>
<path d="M4095 221 c-3 -5 0 -13 6 -17 8 -5 9 -3 4 6 -6 10 -4 12 9 7 10 -4
15 -3 11 3 -8 13 -22 13 -30 1z"/>
<path d="M2349 197 c6 -8 7 -18 3 -22 -4 -5 -1 -5 6 -1 10 6 10 11 1 22 -6 8
-14 14 -16 14 -3 0 0 -6 6 -13z"/>
<path d="M2415 200 c3 -5 8 -10 11 -10 2 0 4 5 4 10 0 6 -5 10 -11 10 -5 0 -7
-4 -4 -10z"/>
<path d="M3950 196 c0 -2 9 -6 20 -9 11 -3 18 -1 14 4 -5 9 -34 13 -34 5z"/>
<path d="M2496 181 c-3 -5 2 -15 12 -22 16 -13 16 -13 2 5 -14 18 -13 19 3 13
11 -4 16 -3 12 3 -8 12 -22 13 -29 1z"/>
<path d="M3920 186 c0 -2 7 -7 16 -10 8 -3 12 -2 9 4 -6 10 -25 14 -25 6z"/>
<path d="M2415 169 c-4 -6 -5 -12 -2 -15 2 -3 7 2 10 11 7 17 1 20 -8 4z"/>
<path d="M2536 163 c-6 -14 -5 -15 5 -6 7 7 10 15 7 18 -3 3 -9 -2 -12 -12z"/>
<path d="M3861 174 c-1 -5 6 -19 14 -30 15 -19 15 -19 8 1 -6 18 -5 19 13 5
18 -14 18 -14 5 2 -7 10 -17 16 -21 13 -5 -3 -11 1 -13 7 -3 7 -6 8 -6 2z"/>
<path d="M2566 157 c3 -10 9 -15 12 -12 3 3 0 11 -7 18 -10 9 -11 8 -5 -6z"/>
<path d="M2600 166 c0 -2 8 -10 18 -17 15 -13 16 -12 3 4 -13 16 -21 21 -21
13z"/>
<path d="M3745 147 c-15 -12 -16 -15 -4 -22 8 -5 11 -5 7 0 -4 4 0 14 10 21
23 18 11 18 -13 1z"/>
<path d="M2470 139 c0 -5 5 -7 10 -4 6 3 10 8 10 11 0 2 -4 4 -10 4 -5 0 -10
-5 -10 -11z"/>
<path d="M2673 132 c2 -12 6 -24 10 -28 3 -4 4 4 2 16 -6 30 -16 40 -12 12z"/>
<path d="M3775 140 c-4 -6 1 -7 11 -3 13 5 15 3 9 -7 -5 -9 -4 -11 4 -6 6 4 9
12 6 17 -8 12 -22 12 -30 -1z"/>
<path d="M2750 129 c0 -5 5 -7 10 -4 6 3 10 8 10 11 0 2 -4 4 -10 4 -5 0 -10
-5 -10 -11z"/>
<path d="M2590 116 c4 -4 16 -4 26 2 16 9 14 10 -8 9 -15 -1 -23 -6 -18 -11z"/>
<path d="M2784 114 c-18 -14 -18 -15 4 -4 12 6 22 13 22 15 0 8 -5 6 -26 -11z"/>
<path d="M2826 120 c5 -8 9 -21 10 -28 2 -8 5 -17 8 -20 4 -3 5 4 3 16 -2 12
-9 28 -17 35 -10 10 -11 9 -4 -3z"/>
<path d="M2860 116 c7 -7 13 -7 20 0 6 6 3 10 -10 10 -13 0 -16 -4 -10 -10z"/>
<path d="M3505 119 c-4 -6 -5 -12 -2 -15 2 -3 7 2 10 11 7 17 1 20 -8 4z"/>
<path d="M3531 114 c0 -11 3 -14 6 -6 3 7 2 16 -1 19 -3 4 -6 -2 -5 -13z"/>
<path d="M3580 120 c8 -5 20 -10 25 -10 6 0 3 5 -5 10 -8 5 -19 10 -25 10 -5
0 -3 -5 5 -10z"/>
<path d="M3630 126 c0 -2 7 -7 16 -10 8 -3 12 -2 9 4 -6 10 -25 14 -25 6z"/>
<path d="M3674 118 c-3 -5 0 -7 8 -6 7 2 12 -4 10 -12 -2 -8 0 -11 4 -7 14 13
12 34 -3 34 -7 0 -16 -4 -19 -9z"/>
<path d="M2920 111 c0 -6 4 -13 10 -16 6 -3 7 1 4 9 -7 18 -14 21 -14 7z"/>
<path d="M2969 107 c6 -8 7 -18 3 -22 -4 -5 -1 -5 6 -1 10 6 10 11 1 22 -6 8
-14 14 -16 14 -3 0 0 -6 6 -13z"/>
<path d="M3418 108 c-9 -5 -6 -7 9 -5 12 2 25 6 28 8 8 9 -23 6 -37 -3z"/>
<path d="M3059 108 c-6 -12 -4 -46 2 -42 4 2 5 12 2 21 -5 12 -3 14 7 8 9 -5
11 -4 6 3 -7 11 -14 15 -17 10z"/>
<path d="M3099 108 c-5 -14 -4 -56 2 -53 4 3 6 13 5 23 -2 9 2 20 8 24 8 5 7
8 -1 8 -7 0 -13 -1 -14 -2z"/>
<path d="M3177 99 c7 -7 15 -10 18 -7 3 3 -2 9 -12 12 -14 6 -15 5 -6 -5z"/>
<path d="M3230 100 c0 -5 5 -10 10 -10 6 0 10 5 10 10 0 6 -4 10 -10 10 -5 0
-10 -4 -10 -10z"/>
<path d="M3293 103 c4 -6 1 -14 -5 -16 -10 -4 -10 -6 0 -6 7 -1 10 -6 6 -13
-4 -6 -3 -8 4 -5 12 8 10 32 -3 44 -4 4 -5 3 -2 -4z"/>
<path d="M3336 98 c-7 -21 -3 -48 5 -43 4 3 5 15 1 27 -4 16 -2 19 8 13 9 -5
11 -4 6 3 -9 15 -16 15 -20 0z"/>
<path d="M3554 94 c1 -7 6 -17 10 -21 4 -4 6 -1 4 7 -2 9 3 14 12 12 8 -2 11
0 7 4 -13 14 -35 12 -33 -2z"/>
<path d="M3735 100 c3 -5 8 -10 11 -10 2 0 4 5 4 10 0 6 -5 10 -11 10 -5 0 -7
-4 -4 -10z"/>
<path d="M3155 80 c-3 -5 -1 -10 4 -10 6 0 11 5 11 10 0 6 -2 10 -4 10 -3 0
-8 -4 -11 -10z"/>
<path d="M3366 82 c-2 -4 4 -8 14 -8 10 0 16 4 14 8 -3 4 -9 8 -14 8 -5 0 -11
-4 -14 -8z"/>
<path d="M3486 78 c3 -5 10 -6 15 -3 13 9 11 12 -6 12 -8 0 -12 -4 -9 -9z"/>
</g>
</svg>
